# xmcd
#
# Track frame offsets: 
#        150
#        13500
#        28059
#        39471
#        55722
#        76194
#        91278
#        106249
#        119961
#        138279
#        147976
#
# Disc length: 2156 seconds
#
# Revision: 0
# Processed by: cddbd v1.5.2PL0 Copyright (c) Steve Scherf et al.
# Submitted via: ExactAudioCopy v1.0b3
#
DISCID=8d086a0b
DTITLE=Brett Kissel - Tried And True - A Canadian Tribute
DYEAR=2013
DGENRE=Country
TTITLE0=Navajo Rug - Duet - Corb Lund
TTITLE1=No Trespassing
TTITLE2=Snowbird
TTITLE3=Fox On The Run - Duet - Steve Fox
TTITLE4=Paper Rosie
TTITLE5=Would You Dance With This Old Cowboy - Duet - Gary Fjellgaard
TTITLE6=I've Been Everywhere
TTITLE7=Who Wrote The Words - Duet - Larry Mercey
TTITLE8=You Won't Dance With Me
TTITLE9=Travellin' Man
TTITLE10=Cec's Breakdown - Instrumental Duet - Freddie Pelletier
EXTD=
EXTT0=
EXTT1=
EXTT2=
EXTT3=
EXTT4=
EXTT5=
EXTT6=
EXTT7=
EXTT8=
EXTT9=
EXTT10=
PLAYORDER=
